<svg id="notification_outline_notification" data-name="notification/outline/notification" xmlns="http://www.w3.org/2000/svg" width="40" height="40" viewBox="0 0 40 40">
  <g id="vuesax_outline_notification" data-name="vuesax/outline/notification">
    <g id="notification">
      <path id="Vector" d="M14.656,30.6a36.124,36.124,0,0,1-11.45-1.85A4.637,4.637,0,0,1,.272,26a4.5,4.5,0,0,1,.45-3.967L2.639,18.85a6.747,6.747,0,0,0,.767-2.783V11.25a11.25,11.25,0,0,1,22.5,0v4.817a6.965,6.965,0,0,0,.767,2.8l1.9,3.167A4.613,4.613,0,0,1,28.939,26a4.533,4.533,0,0,1-2.85,2.75A35.946,35.946,0,0,1,14.656,30.6Zm0-28.1a8.76,8.76,0,0,0-8.75,8.75v4.817a9.4,9.4,0,0,1-1.117,4.067L2.872,23.317a2.071,2.071,0,0,0-.25,1.817,2.108,2.108,0,0,0,1.383,1.233,33.332,33.332,0,0,0,21.317,0,2.035,2.035,0,0,0,1.283-1.25,2.076,2.076,0,0,0-.167-1.8l-1.917-3.183a9.367,9.367,0,0,1-1.117-4.083v-4.8A8.749,8.749,0,0,0,14.656,2.5Z" transform="translate(5.378 3.617)" fill="#1c3651"/>
      <path id="Vector-2" data-name="Vector" d="M7.425,4.6a1.269,1.269,0,0,1-.35-.05,11.745,11.745,0,0,0-1.4-.3,9.745,9.745,0,0,0-4.067.3A1.241,1.241,0,0,1,.091,2.9,4.54,4.54,0,0,1,4.341,0a4.516,4.516,0,0,1,4.25,2.9,1.271,1.271,0,0,1-.233,1.3A1.288,1.288,0,0,1,7.425,4.6Z" transform="translate(15.709 1.967)" fill="#1c3651"/>
      <path id="Vector-3" data-name="Vector" d="M6.25,6.25A6.273,6.273,0,0,1,1.833,4.417,6.273,6.273,0,0,1,0,0H2.5A3.776,3.776,0,0,0,3.6,2.65a3.776,3.776,0,0,0,2.65,1.1A3.756,3.756,0,0,0,10,0h2.5A6.252,6.252,0,0,1,6.25,6.25Z" transform="translate(13.783 31.767)" fill="#1c3651"/>
      <path id="Vector-4" data-name="Vector" d="M0,0H40V40H0Z" fill="none" opacity="0"/>
    </g>
  </g>
</svg>
