<svg xmlns="http://www.w3.org/2000/svg" xmlns:xlink="http://www.w3.org/1999/xlink" width="22.416" height="22.416" viewBox="0 0 22.416 22.416">
  <defs>
    <clipPath id="clip-path">
      <rect width="22.416" height="22.416" fill="none"/>
    </clipPath>
  </defs>
  <g id="microphone-2_broken" data-name="microphone-2/broken" clip-path="url(#clip-path)">
    <g id="microphone-2_broken-2" data-name="microphone-2/broken" transform="translate(0)">
      <g id="vuesax_broken_microphone-2" data-name="vuesax/broken/microphone-2" transform="translate(0 0)">
        <g id="microphone-2">
          <path id="Vector" d="M0,7.491V8.873a3.736,3.736,0,0,0,7.472,0V3.736A3.736,3.736,0,0,0,0,3.736" transform="translate(7.472 1.868)" fill="none" stroke="#aa8e56" stroke-linecap="round" stroke-linejoin="round" stroke-width="1.5"/>
          <path id="Vector-2" data-name="Vector" d="M0,0H22.416V22.416H0Z" fill="none" opacity="0"/>
          <path id="Vector-3" data-name="Vector" d="M0,0V1.588a7.145,7.145,0,0,0,14.29,0V0" transform="translate(4.063 9.013)" fill="none" stroke="#aa8e56" stroke-linecap="round" stroke-linejoin="round" stroke-width="1.5"/>
          <path id="Vector-4" data-name="Vector" d="M0,.231a3.761,3.761,0,0,1,2.6,0" transform="translate(9.91 5.775)" fill="none" stroke="#aa8e56" stroke-linecap="round" stroke-linejoin="round" stroke-width="1.5"/>
          <path id="Vector-5" data-name="Vector" d="M0,.1A2.931,2.931,0,0,1,1.5.1" transform="translate(10.461 7.888)" fill="none" stroke="#aa8e56" stroke-linecap="round" stroke-linejoin="round" stroke-width="1.5"/>
          <path id="Vector-6" data-name="Vector" d="M0,0V2.8" transform="translate(11.208 17.746)" fill="none" stroke="#aa8e56" stroke-linecap="round" stroke-linejoin="round" stroke-width="1.5"/>
        </g>
      </g>
    </g>
  </g>
</svg>
