<svg id="ranking" xmlns="http://www.w3.org/2000/svg" width="18.183" height="18.058" viewBox="0 0 18.183 18.058">
  <path id="Vector" d="M10.668,1.3l1.6,3.2a1.966,1.966,0,0,0,1.285.946l2.9.485c1.855.315,2.292,1.649.958,2.983l-2.255,2.267a1.979,1.979,0,0,0-.473,1.649l.643,2.8c.509,2.207-.667,3.068-2.619,1.916L9.989,15.934a1.954,1.954,0,0,0-1.795,0l-2.728,1.6c-1.952,1.152-3.128.291-2.619-1.916l.643-2.8a2,2,0,0,0-.473-1.649L.774,8.926c-1.334-1.334-.9-2.68.958-2.983l2.9-.485a2.006,2.006,0,0,0,1.285-.946l1.6-3.2C8.376-.435,9.807-.435,10.668,1.3Z" transform="translate(0 0)" fill="#f2b21a"/>
</svg>
