<svg xmlns="http://www.w3.org/2000/svg" width="18.099" height="18.099" viewBox="0 0 18.099 18.099">
  <path id="Path_63735" data-name="Path 63735" d="M230.81,162.96a9.05,9.05,0,1,0,6.818,14.975h.04v-.04a8.932,8.932,0,0,0,2.191-5.884,9.058,9.058,0,0,0-9.05-9.05Zm2.962,13.838h-2.394v-4.261h3.45a11.171,11.171,0,0,1-1.055,4.261Zm-6.655-4.221h3.165v4.261h-2.11A11.361,11.361,0,0,1,227.117,172.578Zm3.165-5.032v3.936h-3.165a12.066,12.066,0,0,1,.893-3.936Zm1.1,3.9v-3.936h2.557a12.064,12.064,0,0,1,.893,3.936Zm0-7.345a.894.894,0,0,1,.325.041,11.3,11.3,0,0,1,1.7,2.313h-2.029Zm-1.1,2.354h-1.745a10.729,10.729,0,0,1,1.745-2.354Zm-6.006,1.1h2.557a13.1,13.1,0,0,0-.812,3.936h-3.084A7.744,7.744,0,0,1,224.276,167.545Zm-1.38,5.032h3.084a12.957,12.957,0,0,0,.933,4.261h-2.435A8.264,8.264,0,0,1,222.9,172.578Zm7.386,7.3a11.337,11.337,0,0,1-1.5-1.948h1.5Zm1.1.04v-1.989h1.786a11.894,11.894,0,0,1-1.542,1.989h-.243Zm5.763-3.125H234.99a12,12,0,0,0,.933-4.261h2.8A7.394,7.394,0,0,1,237.141,176.8Zm1.623-5.357h-2.841a12.173,12.173,0,0,0-.812-3.936h2.232a8.118,8.118,0,0,1,1.42,3.936Z" transform="translate(-221.76 -162.96)" fill="#b3b3b3"/>
</svg>
