<svg xmlns="http://www.w3.org/2000/svg" width="28.462" height="28.266" viewBox="0 0 28.462 28.266">
  <g id="ranking" transform="translate(0 0)">
    <path id="Vector" d="M16.7,2.033,19.2,7.044a3.078,3.078,0,0,0,2.012,1.48l4.536.759c2.9.493,3.587,2.581,1.5,4.669L23.721,17.5a3.1,3.1,0,0,0-.74,2.581l1.006,4.384c.8,3.454-1.044,4.8-4.1,3l-4.251-2.524a3.058,3.058,0,0,0-2.809,0l-4.27,2.505c-3.056,1.8-4.9.456-4.1-3l1.006-4.384a3.135,3.135,0,0,0-.74-2.581L1.211,13.971C-.877,11.883-.194,9.777,2.71,9.3l4.536-.759a3.14,3.14,0,0,0,2.012-1.48l2.505-5.011C13.111-.681,15.351-.681,16.7,2.033Z" transform="translate(0 0)" fill="#cbcbcb"/>
  </g>
</svg>
