<svg id="wallet_linear" data-name="wallet/linear" xmlns="http://www.w3.org/2000/svg" width="20.283" height="20.283" viewBox="0 0 20.283 20.283">
  <g id="vuesax_linear_wallet" data-name="vuesax/linear/wallet">
    <path id="Vector" d="M16.9,4.226V8.451a3.992,3.992,0,0,1-4.226,4.226H4.226A3.992,3.992,0,0,1,0,8.451V4.226A3.933,3.933,0,0,1,3.541.051,4.5,4.5,0,0,1,4.226,0h8.451a3.865,3.865,0,0,1,.634.042A3.942,3.942,0,0,1,16.9,4.226Z" transform="translate(1.69 5.916)" fill="none" stroke="#aa8e56" stroke-linecap="round" stroke-linejoin="round" stroke-width="1.5"/>
    <path id="Vector-2" data-name="Vector" d="M9.77,4.268a3.865,3.865,0,0,0-.634-.042H.685A4.5,4.5,0,0,0,0,4.276a2.572,2.572,0,0,1,.49-.659L3.237.862a2.979,2.979,0,0,1,4.192,0l1.479,1.5A2.852,2.852,0,0,1,9.77,4.268Z" transform="translate(5.233 1.69)" fill="none" stroke="#aa8e56" stroke-linecap="round" stroke-linejoin="round" stroke-width="1.5"/>
    <path id="Vector-3" data-name="Vector" d="M4.226,0H1.69a1.69,1.69,0,0,0,0,3.381H4.226" transform="translate(14.367 10.564)" fill="none" stroke="#aa8e56" stroke-linecap="round" stroke-linejoin="round" stroke-width="1.5"/>
    <path id="Vector-4" data-name="Vector" d="M0,0H20.283V20.283H0Z" fill="none" opacity="0"/>
  </g>
</svg>
