<svg xmlns="http://www.w3.org/2000/svg" width="19.051" height="19.051" viewBox="0 0 19.051 19.051">
  <g id="Group_174552" data-name="Group 174552" transform="translate(156 -10168)">
    <path id="Path_63766" data-name="Path 63766" d="M9.525,0a9.525,9.525,0,1,0,9.525,9.525A9.526,9.526,0,0,0,9.525,0ZM6.757,14.4H4.438V7.42h2.32ZM5.6,6.467H5.582a1.209,1.209,0,1,1,.031-2.412A1.21,1.21,0,1,1,5.6,6.467ZM15.122,14.4H12.8V10.666c0-.938-.336-1.578-1.175-1.578a1.27,1.27,0,0,0-1.19.848,1.588,1.588,0,0,0-.076.566v3.9H8.041s.03-6.325,0-6.979h2.32v.988a2.3,2.3,0,0,1,2.091-1.152c1.526,0,2.671,1,2.671,3.141Zm0,0" transform="translate(-156 10168)" fill="#fff"/>
  </g>
</svg>
