<svg xmlns="http://www.w3.org/2000/svg" width="17.843" height="16.728" viewBox="0 0 17.843 16.728">
  <g id="Group_174207" data-name="Group 174207" transform="translate(0)">
    <path id="Path_63416" data-name="Path 63416" d="M17.493,28.48a5.153,5.153,0,0,1-3.5-2.94.169.169,0,0,0-.01-.02.737.737,0,0,1-.084-.607c.13-.306.63-.464.96-.569.1-.03.186-.059.261-.088a2.019,2.019,0,0,0,.712-.425.676.676,0,0,0,.216-.486.765.765,0,0,0-.573-.664,1.036,1.036,0,0,0-.388-.074.864.864,0,0,0-.361.074,2.028,2.028,0,0,1-.744.212.683.683,0,0,1-.246-.054c.007-.112.013-.226.021-.345l0-.051a8.833,8.833,0,0,0-.228-3.6,4.846,4.846,0,0,0-1.092-1.562,4.566,4.566,0,0,0-1.306-.861,5.16,5.16,0,0,0-2.037-.43H9.048l-.307,0a5.179,5.179,0,0,0-2.04.43,4.54,4.54,0,0,0-1.3.86,4.861,4.861,0,0,0-1.087,1.559,8.84,8.84,0,0,0-.229,3.6v0c.008.129.017.264.025.4a.715.715,0,0,1-.292.055,1.935,1.935,0,0,1-.8-.213.714.714,0,0,0-.3-.062,1.068,1.068,0,0,0-.534.149.739.739,0,0,0-.378.483.666.666,0,0,0,.254.626,2.193,2.193,0,0,0,.665.38c.076.03.166.058.261.088.33.1.831.263.961.569a.743.743,0,0,1-.085.607.158.158,0,0,0-.009.02,5.905,5.905,0,0,1-.9,1.39,5.044,5.044,0,0,1-1.084.957,3.989,3.989,0,0,1-1.522.592A.417.417,0,0,0,0,28.913a.528.528,0,0,0,.043.182h0a1.115,1.115,0,0,0,.6.516,6.9,6.9,0,0,0,1.745.454,2.117,2.117,0,0,1,.107.384c.029.134.059.272.1.418a.457.457,0,0,0,.478.348,2.329,2.329,0,0,0,.41-.057,4.667,4.667,0,0,1,.936-.106,4.066,4.066,0,0,1,.669.057,3.178,3.178,0,0,1,1.25.646,4.048,4.048,0,0,0,2.465.96q.045,0,.09,0c.036,0,.081,0,.128,0a4.054,4.054,0,0,0,2.465-.959h0a3.19,3.19,0,0,1,1.25-.645,4.067,4.067,0,0,1,.669-.057,4.689,4.689,0,0,1,.936.1,2.261,2.261,0,0,0,.41.05h.02a.452.452,0,0,0,.458-.342c.042-.144.072-.278.1-.415a2.19,2.19,0,0,1,.106-.381,6.951,6.951,0,0,0,1.745-.454,1.119,1.119,0,0,0,.6-.515.53.53,0,0,0,.045-.184A.415.415,0,0,0,17.493,28.48Z" transform="translate(0 -15.988)" fill="#fff"/>
  </g>
</svg>
