<svg xmlns="http://www.w3.org/2000/svg" width="16.229" height="13.186" viewBox="0 0 16.229 13.186">
  <path id="Path_63732" data-name="Path 63732" d="M16.229,49.561a6.937,6.937,0,0,1-1.917.525,3.308,3.308,0,0,0,1.464-1.839,6.649,6.649,0,0,1-2.11.805A3.327,3.327,0,0,0,7.91,51.328a3.426,3.426,0,0,0,.077.759,9.417,9.417,0,0,1-6.858-3.48,3.328,3.328,0,0,0,1.022,4.447,3.286,3.286,0,0,1-1.5-.41v.037a3.342,3.342,0,0,0,2.666,3.269,3.321,3.321,0,0,1-.872.11A2.942,2.942,0,0,1,1.813,56a3.359,3.359,0,0,0,3.109,2.318A6.685,6.685,0,0,1,.8,59.738a6.233,6.233,0,0,1-.8-.046,9.366,9.366,0,0,0,5.1,1.493,9.4,9.4,0,0,0,9.469-9.467c0-.147-.005-.289-.012-.43A6.637,6.637,0,0,0,16.229,49.561Z" transform="translate(0 -48)" fill="#fff"/>
</svg>
